#!OML:ASF F:\VICON\USERDATA\INSTALL\rory3\rory3.ASF
:FULLY-SPECIFIED
:DEGREES
254
root -3.95393 17.6745 12.9047 109.442 84.3175 109.39
lowerback 12.4863 0.462312 -3.89616
upperback 0.993537 0.0781642 -0.827642
thorax -5.96551 0.153645 1.31199
lowerneck -20.4661 -5.13419 -12.3581
upperneck 28.4091 -5.0188 7.48381
head 13.5688 -2.38394 4.2202
rclavicle -5.96354e-016 3.57812e-015
rhumerus -40.5282 -13.2989 -80.1793
rradius 28.539
rwrist 6.85257
rhand -19.7503 7.9467
rfingers 7.12502
rthumb 6.58091 -21.931
lclavicle -5.96354e-016 3.57812e-015
lhumerus -30.457 2.37832 84.2656
lradius 38.3983
lwrist -2.49244
lhand -20.9608 26.7718
lfingers 7.12502
lthumb 5.41215 56.6827
rfemur -28.7305 -7.86211 13.1703
rtibia 52.6298
rfoot -11.5798 -7.51831
rtoes -2.10217
lfemur 3.50208 -0.471473 -31.9259
ltibia 17.7073
lfoot -12.5137 -7.1692
ltoes 7.61718
255
root -3.82932 17.6794 12.9148 113.614 84.4421 113.368
lowerback 12.4362 0.308455 -3.74135
upperback 0.947332 -0.100153 -0.734248
thorax -5.97731 0.0630518 1.35417
lowerneck -20.572 -5.09732 -12.2741
upperneck 28.4473 -4.97366 7.45169
head 13.5973 -2.35862 4.20193
rclavicle 1.3418e-015 7.55382e-015
rhumerus -40.6983 -13.4926 -79.989
rradius 28.2301
rwrist 7.17556
rhand -19.5755 7.98247
rfingers 7.12502
rthumb 6.74965 -21.8899
lclavicle 1.3418e-015 7.55382e-015
lhumerus -30.1081 2.05725 84.3572
lradius 39.0567
lwrist -2.21011
lhand -21.1682 26.6351
lfingers 7.12502
lthumb 5.21191 56.551
rfemur -29.2311 -7.5831 13.7276
rtibia 50.2987
rfoot -11.1219 -7.80526
rtoes -1.57338
lfemur 3.87736 -0.444081 -31.5057
ltibia 17.3582
lfoot -12.2938 -7.77877
ltoes 7.60839
256
root -3.69965 17.6923 12.9268 118.98 84.5794 118.49
lowerback 12.2631 0.177332 -3.54358
upperback 0.911114 -0.235337 -0.608556
thorax -5.91217 -0.00886127 1.39815
lowerneck -20.5896 -5.07374 -11.9847
upperneck 28.3511 -4.96813 7.22076
head 13.542 -2.35534 4.05507
rclavicle -5.46658e-016 -1.03368e-014
rhumerus -40.8999 -13.6658 -79.8268
rradius 28.0347
rwrist 7.24819
rhand -19.5586 7.82491
rfingers 7.12502
rthumb 6.7659 -22.047
lclavicle -5.46658e-016 -1.03368e-014
lhumerus -29.7114 1.37536 84.5656
lradius 39.6309
lwrist -1.90374
lhand -21.6545 26.8098
lfingers 7.12502
lthumb 4.7424 56.7367
rfemur -29.6463 -7.2241 14.3175
rtibia 47.8566
rfoot -10.5749 -7.99454
rtoes -0.794749
lfemur 4.26497 -0.467383 -30.9683
ltibia 16.8907
lfoot -12.095 -8.40924
ltoes 7.09709
257
root -3.56727 17.6939 12.9341 119.914 84.3954 119.353
lowerback 12.2116 0.122579 -3.73353
upperback 0.947082 -0.331215 -0.643541
thorax -5.8397 -0.0524313 1.48452
lowerneck -20.6 -5.07529 -11.7884
upperneck 28.2602 -4.99646 7.08127
head 13.4978 -2.36512 3.95594
rclavicle -3.97569e-016 1.98785e-015
rhumerus -41.0652 -13.9142 -79.6508
rradius 27.8411
rwrist 7.29682
rhand -19.2509 7.78524
rfingers 7.12502
rthumb 7.06298 -22.0769
lclavicle -3.97569e-016 1.98785e-015
lhumerus -29.247 0.623567 84.7115
lradius 40.0754
lwrist -1.2892
lhand -22.0094 26.6552
lfingers 7.12502
lthumb 4.39969 56.5895
rfemur -29.8859 -7.02871 14.3751
rtibia 45.3845
rfoot -9.68882 -7.71117
rtoes -1.39927
lfemur 4.97282 -0.347117 -30.9611
ltibia 16.2433
lfoot -11.9446 -8.88383
ltoes 6.64071
258
root -3.4341 17.6906 12.9374 117.695 84.0511 117.194
lowerback 12.3287 0.110833 -4.24651
upperback 0.998 -0.419759 -0.676066
thorax -5.84316 -0.0823173 1.75488
lowerneck -20.6877 -5.04351 -11.9185
upperneck 28.303 -4.91141 7.13544
head 13.5305 -2.33467 4.01674
rclavicle -2.5345e-015 -1.07344e-014
rhumerus -41.1145 -14.2506 -79.2321
rradius 27.4213
rwrist 7.91337
rhand -19.121 7.8574
rfingers 7.12502
rthumb 7.18839 -22.0005
lclavicle -2.5345e-015 -1.07344e-014
lhumerus -28.8659 0.243644 84.8972
lradius 40.5329
lwrist -0.765241
lhand -21.7067 26.4784
lfingers 7.12502
lthumb 4.69195 56.4064
rfemur -30.0108 -6.77441 14.0861
rtibia 42.9013
rfoot -8.53881 -7.20725
rtoes -0.210289
lfemur 5.96333 -0.243991 -31.344
ltibia 15.3447
lfoot -11.6799 -9.08859
ltoes 5.6458
